<svg width="101" height="107" viewBox="0 0 101 107" fill="none" xmlns="http://www.w3.org/2000/svg">
    <g>
        <path d="M22 72.5V34.5L36.5 43.5V63.5C36.5 67.3203 39.6797 70.5 43.5 70.5H57.5C61.3203 70.5 64.5 67.3203 64.5 63.5V43.5L79 34.5V72.5L64.5 81.5V88L50.5 98.5V95H49V98.5L35 88V81.5L22 72.5Z" fill="#007AFF"/>
        <path d="M75.5 29H25.5C23.8431 29 22.1594 29.5268 21 30.4645C19.8406 31.4021 19.2696 32.6831 19.341 33.9817L22 72.5069L35.5 63.5V43.5C35.5 42.3952 35.947 41.3285 36.7289 40.5476C37.5108 39.7667 38.5775 39.3197 39.6824 39.3197H61.3176C62.4225 39.3197 63.4892 39.7667 64.2711 40.5476C65.053 41.3285 65.5 42.3952 65.5 43.5V63.5L79 72.5069L81.659 33.9817C81.7304 32.6831 81.1594 31.4021 80 30.4645C78.8406 29.5268 77.1569 29 75.5 29Z" fill="#FFF"/>
        <path d="M64.5 22.5H36.5C33.4624 22.5 30.5 25.4624 30.5 28.5V33H70.5V28.5C70.5 25.4624 67.5376 22.5 64.5 22.5Z" fill="#4CD964"/>
        <path d="M49 94.5H52V101.5H49V94.5Z" fill="#4CD964"/>
        <path d="M47.5 55C47.5 53.067 49.067 51.5 51 51.5C52.933 51.5 54.5 53.067 54.5 55C54.5 56.933 52.933 58.5 51 58.5C49.067 58.5 47.5 56.933 47.5 55Z" fill="white"/>
        <path d="M49 60C47.067 60 45.5 61.567 45.5 63.5C45.5 65.433 47.067 67 49 67C50.933 67 52.5 65.433 52.5 63.5C52.5 61.567 50.933 60 49 60Z" fill="white"/>
        <path d="M52.5 55C52.5 53.067 54.067 51.5 56 51.5C57.933 51.5 59.5 53.067 59.5 55C59.5 56.933 57.933 58.5 56 58.5C54.067 58.5 52.5 56.933 52.5 55Z" fill="white"/>
    </g>
</svg>
